<?xml version="1.0" encoding="UTF-8"?>
<svg enable-background="new 0 0 318.19 318.19" version="1.1" viewBox="0 0 318.19 318.19" xml:space="preserve" xmlns="http://www.w3.org/2000/svg">

	<path d="M231.19,318.19H87c-47.97,0-87-39.03-87-87V87C0,39.03,39.03,0,87,0h144.19c47.97,0,87,39.03,87,87v144.18   C318.19,279.16,279.16,318.19,231.19,318.19z M87,30c-31.43,0-57,25.57-57,57v144.18c0,31.43,25.57,57,57,57h144.19   c31.43,0,57-25.57,57-57V87c0-31.43-25.57-57-57-57H87z" fill="#0E1131"/>


	<path d="m159.09 244.4c-47.04 0-85.3-38.27-85.3-85.3s38.27-85.3 85.3-85.3 85.3 38.27 85.3 85.3-38.26 85.3-85.3 85.3zm0-140.61c-30.49 0-55.3 24.81-55.3 55.3s24.81 55.3 55.3 55.3 55.3-24.81 55.3-55.3-24.8-55.3-55.3-55.3z" fill="#0E1131"/>

<circle cx="245.41" cy="73.89" r="18.89" fill="#0E1131"/>
</svg>
