<?xml version="1.0" encoding="UTF-8"?>
<svg enable-background="new 0 0 277.08 319.06" version="1.1" viewBox="0 0 277.08 319.06" xml:space="preserve" xmlns="http://www.w3.org/2000/svg">
<path d="m196.87 104.76" fill="#DB4297"/>
<path d="m146.25 0.25v225.83c-2.91 23.58-23 41.84-47.37 41.84-26.37 0-47.75-21.38-47.75-47.75s21.38-47.75 47.75-47.75c4.98 0 9.77 0.77 14.29 2.19v-52.28c-4.67-0.68-9.43-1.04-14.29-1.04-54.61 0.02-98.88 44.28-98.88 98.89s44.27 98.88 98.88 98.88c50.15 0 91.57-37.33 98-85.72h0.5v-4.56c0.24-2.83 0.38-5.7 0.38-8.59s-0.13-5.76-0.38-8.59l1-105.32c28.57 29.57 78.7 26.57 78.7 26.57v-51.65s-78.95-11.78-79.45-81.2c0.25 0.25-51.38 0.25-51.38 0.25z" fill="#0E1131"/>
</svg>
